<?xml version="1.0" encoding="UTF-8" standalone="no"?>
<!-- Created with Inkscape (http://www.inkscape.org/) -->

<svg
   width="414.76947mm"
   height="472.95059mm"
   viewBox="0 0 414.76947 472.95059"
   version="1.1"
   id="svg1235"
   inkscape:version="1.2.1 (9c6d41e410, 2022-07-14)"
   sodipodi:docname="dqrobotics_logo.svg"
   xmlns:inkscape="http://www.inkscape.org/namespaces/inkscape"
   xmlns:sodipodi="http://sodipodi.sourceforge.net/DTD/sodipodi-0.dtd"
   xmlns="http://www.w3.org/2000/svg"
   xmlns:svg="http://www.w3.org/2000/svg">
  <sodipodi:namedview
     id="namedview1237"
     pagecolor="#ffffff"
     bordercolor="#000000"
     borderopacity="0.25"
     inkscape:showpageshadow="2"
     inkscape:pageopacity="0.0"
     inkscape:pagecheckerboard="0"
     inkscape:deskcolor="#d1d1d1"
     inkscape:document-units="mm"
     showgrid="false"
     inkscape:zoom="0.64693624"
     inkscape:cx="758.18909"
     inkscape:cy="1334.7529"
     inkscape:window-width="3840"
     inkscape:window-height="2035"
     inkscape:window-x="3828"
     inkscape:window-y="-12"
     inkscape:window-maximized="1"
     inkscape:current-layer="layer1" />
  <defs
     id="defs1232">
    <clipPath
       clipPathUnits="userSpaceOnUse"
       id="clipPath1293">
      <rect
         style="opacity:1;fill:#ffffff;fill-opacity:1;stroke:none;stroke-width:2;stroke-miterlimit:4;stroke-dasharray:none;stroke-dashoffset:0;stroke-opacity:0.341176"
         id="rect1295"
         width="29.266012"
         height="39.288624"
         x="728.30945"
         y="402.70511" />
    </clipPath>
  </defs>
  <g
     inkscape:label="Layer 1"
     inkscape:groupmode="layer"
     id="layer1"
     transform="translate(228.20653,185.86673)">
    <g
       id="g1217"
       transform="translate(-1139.1733,-82.98353)">
      <path
         style="fill:#1a1a1a;stroke-width:0.352778"
         d="m 755.09501,433.95297 c -1.21115,-1.30249 -2.20713,-4.85084 -2.20713,-7.8633 v -2.68208 l -1.15065,1.22005 c -1.90339,2.01818 -4.59156,2.35853 -5.9194,0.74946 -0.4754,-0.57609 -0.45588,-0.59235 0.25589,-0.21314 2.90215,1.5462 6.81416,-1.56341 6.81416,-5.41648 0,-2.411 -1.94558,-4.75632 -3.94565,-4.75632 -2.63324,0 -4.07134,1.76042 -5.23797,6.41192 -0.86268,3.43959 -1.48509,4.31006 -3.51714,4.91888 -2.60963,0.78187 -5.34073,-0.58125 -6.67121,-3.32966 -1.90065,-3.92621 0.37915,-8.70669 4.15219,-8.70669 1.55387,0 3.22534,0.60827 3.22534,1.17375 0,0.19522 0.073,0.28199 0.16213,0.19282 0.0892,-0.0892 -0.14895,-1.16165 -0.52916,-2.38328 -0.7055,-2.26675 -0.91408,-5.84698 -0.38889,-6.675 0.17231,-0.27166 0.28655,0.37783 0.27922,1.5875 -0.007,1.12599 0.42576,3.84905 0.96129,6.05123 0.96901,3.98474 1.06086,5.25567 0.2359,3.26404 -0.25529,-0.61633 -0.9467,-1.28875 -1.68573,-1.63945 -1.06451,-0.50513 -1.46755,-0.53025 -2.68006,-0.16697 -1.60044,0.4795 -3.21652,2.00877 -3.55719,3.36611 -0.3237,1.28972 0.37837,3.54949 1.48717,4.78679 1.79448,2.00245 5.18984,1.995 6.88123,-0.0151 0.48568,-0.57719 1.20104,-2.29617 1.64732,-3.95843 0.43386,-1.616 1.04296,-3.37218 1.35355,-3.90262 1.21275,-2.07116 4.23291,-2.49171 6.28755,-0.87553 1.60395,1.26166 2.22926,3.20766 2.23792,6.9645 0.0113,4.89863 0.61378,9.03874 1.60152,11.0053 0.46561,0.927 0.80141,1.68545 0.74622,1.68545 -0.0552,0 -0.43247,-0.35719 -0.83842,-0.79375 z m 79.19635,-7.3484 c -0.84706,-0.49337 -0.78133,-1.12966 0.0882,-0.85368 0.38805,0.12316 1.02305,0.12316 1.41111,0 1.0539,-0.3345 0.89547,-1.82694 -0.54071,-5.0934 -1.22044,-2.77578 -1.23418,-2.85836 -0.66301,-3.98584 0.93826,-1.85213 1.57508,-2.38604 2.84589,-2.38604 0.64903,0 1.18005,0.15875 1.18005,0.35278 0,0.19402 -0.36155,0.35277 -0.80345,0.35277 -1.24921,0 -2.37177,0.9703 -2.36993,2.04848 10e-4,0.52257 0.48631,2.19617 1.07869,3.71911 1.16976,3.00728 1.15841,4.17303 -0.0533,5.47363 -0.77386,0.83064 -1.24727,0.9117 -2.17356,0.37219 z m -26.38477,-0.61821 c -0.76072,-0.61599 -0.79495,-0.85619 -0.72612,-5.09519 l 0.0722,-4.44872 -1.66663,-0.10828 c -0.93543,-0.0608 -1.73033,-0.30175 -1.81181,-0.54926 -0.11085,-0.33672 0.87925,-0.44097 4.18812,-0.44097 2.69748,0 4.20677,0.12477 3.99815,0.33051 -0.18433,0.18178 -1.04952,0.38021 -1.92264,0.44097 l -1.5875,0.11047 -0.27219,3.35138 c -0.36038,4.43736 -0.15117,5.5724 1.08139,5.86677 1.37239,0.32777 1.62325,0.53083 1.08054,0.87471 -0.75524,0.47854 -1.56942,0.36734 -2.43354,-0.33239 z m 8.37382,0.29369 c -0.11252,-0.29104 -0.25555,-2.86816 -0.31784,-5.72693 -0.11047,-5.07067 -0.0236,-5.56196 0.98334,-5.56196 0.0811,0 0.13171,2.26219 0.11237,5.02709 -0.0344,4.91557 -0.34174,7.3898 -0.77787,6.2618 z m -57.84315,-0.21266 c -0.11696,-0.11696 -0.064,-0.60355 0.11759,-1.0813 0.44974,-1.18291 0.41923,-7.7584 -0.04,-8.61644 -0.32495,-0.60717 -0.18471,-0.776 1.14653,-1.38017 0.83422,-0.37861 1.86243,-0.69186 2.28491,-0.69612 0.87868,-0.009 2.23046,1.52251 2.23046,2.52679 0,1.19678 -0.9949,2.64525 -2.14379,3.12114 -0.8946,0.37055 -1.02133,0.53953 -0.63257,0.84344 1.56187,1.22094 4.5746,4.80158 4.34821,5.16787 -0.17041,0.27573 -1.13759,-0.52001 -2.81657,-2.31731 -1.47585,-1.57985 -2.72286,-2.63476 -2.94921,-2.49486 -0.22677,0.14015 -0.39218,1.27514 -0.39218,2.691 0,1.80533 -0.12357,2.44862 -0.47037,2.44862 -0.2587,0 -0.56607,-0.0957 -0.68303,-0.21266 z m 3.48174,-6.984 c 1.35839,-1.35839 1.49579,-2.23698 0.53533,-3.4231 -0.57493,-0.71 -0.7822,-0.76634 -1.5434,-0.41952 -0.72913,0.33222 -0.92114,0.73563 -1.12439,2.36242 -0.37827,3.02757 0.19037,3.42228 2.13246,1.4802 z m 20.23799,6.51251 c 0.58159,-1.08672 0.63617,-8.25916 0.0681,-8.94658 -0.41113,-0.49749 -0.31943,-0.66515 0.70556,-1.29005 3.19487,-1.94782 6.50861,0.56474 3.91572,2.96901 -0.53159,0.49292 -1.09,0.89622 -1.24091,0.89622 -0.15092,0 0.44277,0.68716 1.31931,1.52702 0.87653,0.83987 1.59369,1.69159 1.59369,1.89271 0,1.41918 -3.3678,3.61336 -5.56866,3.62808 -1.03839,0.007 -1.12085,-0.0634 -0.79279,-0.67641 z m 3.86678,-0.8903 c 0.54893,-0.28387 1.10028,-0.78248 1.2252,-1.10804 0.43174,-1.12508 -1.98585,-3.63014 -3.09326,-3.20519 -0.56019,0.21497 -1.0823,3.08483 -0.75108,4.12841 0.26373,0.83094 1.23688,0.89961 2.61914,0.18482 z m -0.27547,-6.24241 c 1.23103,-1.31783 1.20232,-2.35816 -0.085,-3.07824 -1.51059,-0.845 -2.0838,-0.34177 -2.0838,1.8294 0,2.74901 0.49898,3.03634 2.16875,1.24884 z m 38.09854,6.92337 c -2.62638,-2.20995 -2.19196,-6.87862 0.8564,-9.20372 2.02856,-1.54725 6.67425,-1.57628 5.13002,-0.032 -0.28827,0.28828 -0.50508,0.28011 -0.81593,-0.0307 -0.23283,-0.23283 -0.88302,-0.42333 -1.44487,-0.42333 -3.95939,0 -5.96047,6.2917 -2.91196,9.15562 1.09201,1.0259 2.95554,1.03527 4.59325,0.0231 0.68489,-0.42329 1.24525,-0.59558 1.24525,-0.38287 0,0.75874 -2.26434,1.78481 -3.94168,1.78615 -1.25078,9.9e-4 -1.90488,-0.2143 -2.71048,-0.89217 z m -52.69384,-0.009 c -1.718,-0.93233 -2.54129,-3.29654 -2.01024,-5.77276 0.43639,-2.03484 1.64391,-3.39326 3.5145,-3.9537 2.79221,-0.83657 4.92507,1.24801 4.92507,4.8136 0,3.93311 -3.41963,6.54617 -6.42933,4.91286 z m 3.76769,-0.72756 c 1.48532,-0.56997 2.15122,-4.75357 1.08486,-6.81569 -0.91703,-1.77335 -3.35214,-2.06256 -4.75884,-0.5652 -1.65037,1.75673 -1.51152,5.51505 0.25508,6.90466 0.87971,0.69198 2.33017,0.89402 3.4189,0.47623 z m 19.95834,0.82616 c -0.47925,-0.2425 -1.24868,-0.99422 -1.70984,-1.67049 -0.71646,-1.05062 -0.81256,-1.52665 -0.66027,-3.27058 0.21497,-2.4618 1.39891,-4.23008 3.23879,-4.83729 2.55005,-0.84159 4.45204,0.37905 5.10069,3.27346 0.99347,4.43306 -2.51284,8.25393 -5.96937,6.5049 z m 4.24945,-1.51739 c 0.71966,-0.76604 0.85524,-1.26528 0.85524,-3.14913 0,-3.53905 -1.80713,-5.27498 -4.36968,-4.1975 -1.78346,0.74989 -2.6778,3.6655 -1.81802,5.92689 0.92513,2.43328 3.68899,3.16914 5.33246,1.41974 z"
         id="path1289"
         inkscape:connector-curvature="0"
         clip-path="url(#clipPath1293)"
         transform="matrix(16.762906,0,0,16.762906,-11373.43,-6917.551)"
         inkscape:export-xdpi="240"
         inkscape:export-ydpi="240" />
      <path
         style="fill:#000000;stroke:#1a1a1a;stroke-width:5.265;stroke-dasharray:none;stroke-opacity:1"
         d="m 1042.2102,44.128717 8.2345,7.882761"
         id="path275" />
    </g>
  </g>
</svg>
